Coordinates
version=1
nRows=17
nColumns=34
inDegrees=yes

Units are S.I. units (second, meters, Newtons, ...)
Angles are in degrees.

endheader
time	pelvis_tilt	pelvis_list	pelvis_rotation	pelvis_tx	pelvis_ty	pelvis_tz	hip_flexion_r	hip_adduction_r	hip_rotation_r	knee_angle_r	ankle_angle_r	subtalar_angle_r	mtp_angle_r	hip_flexion_l	hip_adduction_l	hip_rotation_l	knee_angle_l	socket_flexion	socket_adduction	socket_rotation	socket_tx	socket_ty	socket_tz	pros_ankle_rx	pros_ankle_ry	pros_ankle_rz	pros_ankle_tx	pros_ankle_ty	pros_ankle_tz	foot_flex	lumbar_extension	lumbar_bending	lumbar_rotation
      0.00000000	     -2.22263749	     -9.53862296	     -2.59561623	     -0.77275342	      1.03016367	      0.39588106	    -17.89526183	     10.59954147	     -5.58638599	     -3.66396143	      5.12148390	     22.13483392	     30.86222547	     23.88390640	    -11.55473777	     -0.15243302	      3.63046504	      3.89556807	      0.00000000	      0.00000000	      0.00000000	     -0.00307787	      0.00000000	      0.00000000	      0.00000000	      0.00000000	      0.00000000	      0.00000000	      0.00000000	      0.20756222	    -16.87762992	      2.49778614	     12.67372525
      0.00416667	     -2.24681141	     -9.53189165	     -2.67551242	     -0.76759007	      1.02922928	      0.39568306	    -18.07016907	     10.52158085	     -5.50797359	     -3.85516656	      5.11362656	     22.14949471	     30.87595346	     23.87132210	    -11.54977105	     -0.07963003	      3.45430548	      4.05994403	      0.00000000	      0.00000000	      0.00000000	     -0.00357997	      0.00000000	      0.00000000	      0.00000000	      0.00000000	      0.00000000	      0.00000000	      0.00000000	     -0.28051546	    -16.81292632	      2.42411220	     12.67774688
      0.00833333	     -2.24051998	     -9.47315934	     -2.90955123	     -0.76225963	      1.02842011	      0.39580970	    -18.20953738	     10.32968406	     -5.41680992	     -4.21601227	      5.28189962	     22.22730709	     31.02451112	     23.86475613	    -11.55711728	     -0.24807797	      2.98038881	      3.99942528	      0.00000000	      0.00000000	      0.00000000	     -0.00420415	      0.00000000	      0.00000000	      0.00000000	      0.00000000	      0.00000000	      0.00000000	      0.00000000	     -0.83210507	    -16.85184156	      2.15622034	     12.87492950
      0.01250000	     -2.26020720	     -9.45883804	     -2.98550561	     -0.75672146	      1.02744973	      0.39555164	    -18.38869938	     10.23677183	     -5.33888868	     -4.44104304	      5.25869797	     22.25263942	     31.05507099	     23.85125433	    -11.54124534	     -0.14645585	      2.76753530	      4.17742783	      0.00000000	      0.00000000	      0.00000000	     -0.00475039	      0.00000000	      0.00000000	      0.00000000	      0.00000000	      0.00000000	      0.00000000	      0.00000000	     -1.32446547	    -16.78498352	      2.09891651	     12.89123755
      0.01666667	     -2.28358656	     -9.44871330	     -3.08433805	     -0.75099276	      1.02647993	      0.39538010	    -18.56498389	     10.13932191	     -5.27705564	     -4.68209880	      5.24996620	     22.27309777	     31.09571784	     23.84326215	    -11.54101162	     -0.11187152	      2.51081727	      4.33954361	      0.00000000	      0.00000000	      0.00000000	     -0.00543134	      0.00000000	      0.00000000	      0.00000000	      0.00000000	      0.00000000	      0.00000000	      0.00000000	     -1.84311911	    -16.73182861	      1.99397914	     12.91304814
      0.02083333	     -2.26626682	     -9.36260165	     -3.33869412	     -0.74530581	      1.02562924	      0.39542532	    -18.64984173	      9.88324325	     -5.24123052	     -5.19509766	      5.42428207	     22.45497977	     31.45744930	     23.89570835	    -11.52130352	     -0.33020411	      1.76482923	      4.15043584	      0.00000000	      0.00000000	      0.00000000	     -0.00627264	      0.00000000	      0.00000000	      0.00000000	      0.00000000	      0.00000000	      0.00000000	      0.00000000	     -2.36241414	    -16.80508153	      1.66484979	     13.20585653
      0.02500000	     -2.28884101	     -9.35645881	     -3.38461920	     -0.73937429	      1.02460237	      0.39516497	    -18.83224340	      9.80839545	     -5.17423570	     -5.43520557	      5.38021449	     22.47876813	     31.49955186	     23.89331773	    -11.50557879	     -0.25687316	      1.52401321	      4.38375581	      0.00000000	      0.00000000	      0.00000000	     -0.00706068	      0.00000000	      0.00000000	      0.00000000	      0.00000000	      0.00000000	      0.00000000	      0.00000000	     -2.79201088	    -16.73259627	      1.60640464	     13.20864337
      0.02916667	     -2.30519051	     -9.34301238	     -3.48009580	     -0.73333854	      1.02363122	      0.39495035	    -18.98990651	      9.69624270	     -5.11625830	     -5.73780578	      5.32691874	     22.49383210	     31.56288120	     23.86503316	    -11.50566898	     -0.21509648	      1.23459296	      4.55006145	      0.00000000	      0.00000000	      0.00000000	     -0.00798957	      0.00000000	      0.00000000	      0.00000000	      0.00000000	      0.00000000	      0.00000000	      0.00000000	     -3.30053299	    -16.67091893	      1.49054226	     13.21648546
      0.03333333	     -2.31221997	     -9.30152668	     -3.62410978	     -0.72728867	      1.02274246	      0.39480893	    -19.10542514	      9.53039310	     -5.06847229	     -6.12378314	      5.27177082	     22.50505955	     31.67057482	     23.83042667	    -11.50001892	     -0.24524883	      0.85067277	      4.65368984	      0.00000000	      0.00000000	      0.00000000	     -0.00899790	      0.00000000	      0.00000000	      0.00000000	      0.00000000	      0.00000000	      0.00000000	      0.00000000	     -3.77785058	    -16.64699266	      1.31322806	     13.24461624
      0.03750000	     -2.48098300	     -9.29158372	     -3.73935662	     -0.72142704	      1.02142129	      0.39454263	    -18.80721562	      9.35707114	     -5.51328473	     -6.94365224	      5.30889589	     23.24326946	     34.00749041	     24.39880854	    -11.49220357	     -0.32124729	     -0.64915670	      4.09664671	      0.00000000	      0.00000000	      0.00000000	     -0.01027267	      0.00000000	      0.00000000	      0.00000000	      0.00000000	      0.00000000	      0.00000000	      0.00000000	     -4.12182684	    -16.54415887	      1.15882086	     13.53198894
      0.04166667	     -2.46185244	     -9.19009703	     -3.86753668	     -0.71530115	      1.02068567	      0.39445649	    -18.93244413	      9.13991754	     -5.44840470	     -7.34907693	      5.19609195	     23.13163716	     34.22825219	     24.31416664	    -11.42182741	     -0.43825993	     -1.00537343	      4.25006366	      0.00000000	      0.00000000	      0.00000000	     -0.01118998	      0.00000000	      0.00000000	      0.00000000	      0.00000000	      0.00000000	      0.00000000	      0.00000000	     -4.45365085	    -16.54177601	      0.88647708	     13.47450815
      0.04583333	     -2.44787363	     -9.15434389	     -3.94886457	     -0.70919688	      1.01992849	      0.39420834	    -19.04185120	      9.00102052	     -5.38288798	     -7.76352951	      5.07060257	     23.07393189	     34.36696805	     24.25205862	    -11.39516582	     -0.48371675	     -1.35625314	      4.42523545	      0.00000000	      0.00000000	      0.00000000	     -0.01227713	      0.00000000	      0.00000000	      0.00000000	      0.00000000	      0.00000000	      0.00000000	      0.00000000	     -4.76819426	    -16.53540884	      0.71197844	     13.47422436
      0.05000000	     -2.41924100	     -9.02021096	     -4.09066221	     -0.70315483	      1.01936163	      0.39416828	    -19.07604253	      8.74254473	     -5.32736599	     -8.32653797	      4.94445363	     22.97537059	     34.74452566	     24.21824720	    -11.30033277	     -0.66716674	     -1.94174688	      4.44491468	      0.00000000	      0.00000000	      0.00000000	     -0.01316488	      0.00000000	      0.00000000	      0.00000000	      0.00000000	      0.00000000	      0.00000000	      0.00000000	     -4.96062035	    -16.60820524	      0.39945488	     13.54005273
      0.05416667	     -2.40510126	     -8.99849407	     -4.09633080	     -0.69700872	      1.01870615	      0.39383430	    -19.18506883	      8.65901618	     -5.23455941	     -8.71615748	      4.80777686	     22.94577269	     34.82715977	     24.14692757	    -11.26413123	     -0.62331319	     -2.25727739	      4.67087583	      0.00000000	      0.00000000	      0.00000000	     -0.01425209	      0.00000000	      0.00000000	      0.00000000	      0.00000000	      0.00000000	      0.00000000	      0.00000000	     -5.14935145	    -16.54187115	      0.28744498	     13.52628197
      0.05833333	     -2.39330399	     -8.87312314	     -4.24319705	     -0.69104263	      1.01822041	      0.39376529	    -19.09689445	      8.39257844	     -5.27257226	     -9.43600479	      4.53553270	     22.75710303	     35.15661442	     24.13520191	    -11.17706242	     -0.86865375	     -2.88027666	      4.67054365	      0.00000000	      0.00000000	      0.00000000	     -0.01518687	      0.00000000	      0.00000000	      0.00000000	      0.00000000	      0.00000000	      0.00000000	      0.00000000	     -5.30184044	    -16.68111727	     -0.04017728	     13.52431233
      0.06250000	     -2.54362094	     -8.87275023	     -4.18125674	     -0.68507433	      1.01724491	      0.39325247	    -18.87557626	      8.32987399	     -5.47479974	    -10.02425488	      4.10162834	     22.68066822	     39.01195663	     24.61654301	    -11.12990802	     -0.75294141	     -4.19747493	      4.26753645	      0.00000000	      0.00000000	      0.00000000	     -0.01632957	      0.00000000	      0.00000000	      0.00000000	      0.00000000	      0.00000000	      0.00000000	      0.00000000	     -5.40251130	    -16.47946025	     -0.13081611	     13.45759708
      0.06666667	     -2.50833316	     -8.75638536	     -4.21914503	     -0.67903506	      1.01693679	      0.39305221	    -18.84186553	      8.13273271	     -5.44718811	    -10.66244723	      3.81554914	     22.51287032	     39.08519012	     24.50945370	    -11.01544731	     -0.87370629	     -4.58570417	      4.43840779	      0.00000000	      0.00000000	      0.00000000	     -0.01718384	      0.00000000	      0.00000000	      0.00000000	      0.00000000	      0.00000000	      0.00000000	      0.00000000	     -5.45920506	    -16.56803202	     -0.37669208	     13.41442692
